<?xml version="1.0" encoding="iso-8859-1"?>
<!-- Generator: Adobe Illustrator 19.0.0, SVG Export Plug-In . SVG Version: 6.00 Build 0)  -->
<svg version="1.1" id="Capa_1" xmlns="http://www.w3.org/2000/svg" xmlns:xlink="http://www.w3.org/1999/xlink" x="0px" y="0px"
	 viewBox="0 0 500 500" style="enable-background:new 0 0 500 500;" xml:space="preserve">
<g>
	<path style="fill:#FEDB41;" d="M245.5,362.65c0-0.9,0-1.9,0-2.8c0-67.5,54.8-122.2,122.3-122.1c67.5,0,122.2,54.8,122.1,122.3
		c0,67.5-54.8,122.2-122.3,122.1C301.2,482.05,247,428.95,245.5,362.65z M423.4,433.55v-123.7h-16.6v-29.2h-77.4v29.2h-16.6v123.7
		H423.4L423.4,433.55z"/>
	<polygon style="fill:#FEDB41;" points="423.4,309.85 423.4,433.55 390.9,433.55 390.9,395.85 343.3,395.85 343.3,433.55 
		312.7,433.55 312.7,309.85 329.3,309.85 406.7,309.85 	"/>
	<rect x="329.3" y="280.65" style="fill:#FEDB41;" width="77.4" height="29.2"/>
	<path style="fill:#FEDB41;" d="M396.1,17.65v223l-0.1,0.2c-20.4-4.8-41.6-4.3-61.8,1.4V17.65H396.1z"/>
	<rect x="343.3" y="395.85" style="fill:#FEDB41;" width="47.6" height="37.7"/>
</g>
<path style="fill:#00EFD1;" d="M286.8,268.05L286.8,268.05c-26.3,23.2-41.4,56.6-41.3,91.7c0,0.9,0,1.9,0,2.8h-19.4v-103.5h60.7
	V268.05z"/>
<rect x="226.2" y="63.65" style="fill:#FEDB41;" width="60.7" height="195.5"/>
<rect x="118.1" y="259.05" style="fill:#00EFD1;" width="60.7" height="103.5"/>
<rect x="118.1" y="109.65" style="fill:#FEDB41;" width="60.7" height="149.5"/>
<rect x="10" y="259.05" style="fill:#00EFD1;" width="60.7" height="103.5"/>
<rect x="10" y="190.05" style="fill:#FEDB41;" width="60.7" height="69"/>
<g>
	<path style="fill:#083863;" d="M178.7,99.85H118c-5.4-0.1-9.9,4.2-10.1,9.6v0.1v253c0,5.6,4.5,10.1,10.1,10.2h60.7
		c5.6-0.1,10.2-4.6,10.3-10.2v-253C189,104.05,184.3,99.85,178.7,99.85z M128,119.85h41v129h-41V119.85z M128,352.85v-84h41v84H128z
		"/>
	<path style="fill:#083863;" d="M70.6,179.85H10c-5.6,0.1-10,4.7-10,10.2v172.5c0,5.6,4.4,10.1,10,10.2h60.7
		c5.6-0.1,10.2-4.6,10.4-10.2v-172.5C80.9,184.45,76.3,179.95,70.6,179.85z M20,199.85h41v49H20V199.85z M20,352.85v-84h41v84H20z"
		/>
	<path style="fill:#083863;" d="M406,233.25V17.65c0-5.4-4.3-9.7-9.7-9.8c-0.1,0-0.2,0-0.2,0h-61.8c-5.5,0-10.3,4.2-10.3,9.8v217.3
		c-9,3.3-19,7.8-27,13.3V63.65c-0.1-5.5-4.6-9.8-10.1-9.8c0,0,0,0-0.1,0h-60.7c-5.5-0.1-10,4.2-10.2,9.7c0,0,0,0,0,0.1v299
		c0.1,5.6,4.6,10.1,10.2,10.2h9.9c6.6,67.7,63.6,119.4,131.7,119.3c72.9,0,132.3-59.4,132.3-132.3c0-30-10.3-59.2-29-82.6
		C454.2,256.45,431.5,241.15,406,233.25z M386,27.85v201c-6.1-0.8-12.3-1.3-18.4-1.3c-7.9,0-15.8,0.7-23.6,2.1V27.85H386z
		 M236,346.65v-77.8h35.5C251.5,290.15,239,317.55,236,346.65z M236,73.85h41v175h-41V73.85z M367.8,472.05
		c-61,0-110.8-48.7-112.2-109.7c0-0.8,0-1.7,0-2.6c-0.1-61.8,49.8-112,111.6-112.1c9,0,17.9,1,26.6,3.2l0,0
		c24.2,5,46.1,19.5,61.7,39c16,19.8,24.7,44.6,24.6,70.1C479.9,421.85,429.7,472.05,367.8,472.05z"/>
	<path style="fill:#083863;" d="M423.4,299.85H417v-19.2c-0.1-5.5-4.7-9.9-10.3-9.8h-77.4c-5.5,0-10.3,4.3-10.3,9.8v19.2h-6.3
		c-5.4,0-9.7,4.4-9.7,9.8c0,0.1,0,0.1,0,0.2v123.7c0,5.5,4.2,10.3,9.7,10.3h110.7c5.5,0,9.6-4.8,9.6-10.3v-123.7
		c0.2-5.3-4-9.8-9.4-10C423.5,299.85,423.5,299.85,423.4,299.85z M339,290.85h58v9h-58V290.85z M381,423.85h-28v-18h28V423.85z
		 M413,423.85h-12v-28c-0.1-5.5-4.6-10-10.1-10h-47.6c-5.6,0-10.1,4.4-10.3,10v28h-10v-104h90V423.85z"/>
	<path style="fill:#083863;" d="M348,349.85h40c5.5,0,10-4.5,10-10s-4.5-10-10-10h-40c-5.5,0-10,4.5-10,10S342.5,349.85,348,349.85z
		"/>
	<path style="fill:#083863;" d="M348,377.85h40c5.5,0,10-4.5,10-10s-4.5-10-10-10h-40c-5.5,0-10,4.5-10,10S342.5,377.85,348,377.85z
		"/>
</g>
<g>
</g>
<g>
</g>
<g>
</g>
<g>
</g>
<g>
</g>
<g>
</g>
<g>
</g>
<g>
</g>
<g>
</g>
<g>
</g>
<g>
</g>
<g>
</g>
<g>
</g>
<g>
</g>
<g>
</g>
</svg>
