<svg height="512" viewBox="0 0 512 512" width="512" xmlns="http://www.w3.org/2000/svg"><g id="FilledOutline"><path d="m353.416 377.433v-34.866l-31.222-11.1c-4.2-10.129-6.316-15.246-10.511-25.375l14.226-29.929-24.654-24.653-29.928 14.226-25.376-10.511-11.103-31.225h-34.865l-11.1 31.222-25.383 10.511-29.928-14.226-24.65 24.653 14.226 29.929c-4.195 10.129-6.315 15.246-10.511 25.375l-31.221 11.1v34.866l31.221 11.1c4.2 10.129 6.316 15.246 10.511 25.375l-14.226 29.935 24.654 24.653 29.924-14.226 25.376 10.511 11.107 31.222h34.865l11.1-31.222 25.376-10.511 29.928 14.226 24.654-24.653-14.226-29.929c4.195-10.129 6.315-15.246 10.511-25.375zm-136 46.567a64 64 0 1 1 64-64 64 64 0 0 1 -64 64z" fill="#ef5249"/><path d="m488 185.433v-34.866l-31.222-11.1-10.511-25.375 14.226-29.932-24.653-24.653-29.928 14.226-25.376-10.511-11.103-31.222h-34.866l-11.1 31.222-25.379 10.511-29.928-14.226-24.653 24.653 14.226 29.929-10.511 25.375-13.994 10.271c0 17.41-17.228 18.287-17.228 35.7l31.222 11.1 10.511 25.375-14.226 29.93 24.653 24.653 29.928-14.226 25.376 10.511 11.103 31.222h34.866l11.1-31.222 25.376-10.511 29.928 14.226 24.653-24.653-14.226-29.929 10.511-25.375zm-136 46.567a64 64 0 1 1 64-64 64 64 0 0 1 -64 64z" fill="#88bf40"/><path d="m296 161.433v-34.866l-31.222-11.1-10.511-25.378 14.226-29.929-24.653-24.653-29.928 14.226-25.376-10.511-11.103-31.222h-34.866l-11.1 31.222-25.379 10.511-29.928-14.226-24.653 24.653 14.226 29.929-10.511 25.375-31.222 11.103v34.866l31.222 11.1 10.511 25.375-14.226 29.932 24.653 24.653 29.928-14.226 25.376 10.511 11.103 31.222h34.866l11.1-31.222 25.376-10.511 29.928 14.226 24.653-24.653-14.226-29.929 10.511-25.375zm-136 46.567a64 64 0 1 1 64-64 64 64 0 0 1 -64 64z" fill="#ffc119"/><path d="m376 456v-48l-43.029-43.029a16.972 16.972 0 0 1 -4.971-12 16.971 16.971 0 0 1 16.971-16.971 16.972 16.972 0 0 1 12 4.971l19.029 19.029v-88a16 16 0 0 1 16-16 16 16 0 0 1 16 16v40h34.745a45.255 45.255 0 0 1 45.255 45.255 45.255 45.255 0 0 1 -13.255 32l-18.745 18.745v48z" fill="#f5be9a"/><path d="m360 432h112v72h-112z" fill="#0093ba"/><path d="m79.6 259.719 26.717-12.7 18.806 7.79 9.912 27.872a8 8 0 0 0 7.532 5.319h34.866a8 8 0 0 0 7.537-5.319l9.912-27.872 18.806-7.79 26.717 12.7a8.006 8.006 0 0 0 9.092-1.569l24.653-24.65a8 8 0 0 0 1.569-9.092l-12.7-26.717 7.79-18.806 27.872-9.912a8 8 0 0 0 5.319-7.54v-34.866a8 8 0 0 0 -5.319-7.537l-27.872-9.912-7.79-18.806 12.7-26.717a8 8 0 0 0 -1.569-9.095l-24.65-24.65a8 8 0 0 0 -9.092-1.569l-26.717 12.7-18.806-7.79-9.915-27.872a8 8 0 0 0 -7.537-5.319h-34.866a8 8 0 0 0 -7.537 5.319l-9.912 27.872-18.806 7.79-26.712-12.7a8 8 0 0 0 -9.1 1.569l-24.65 24.65a8 8 0 0 0 -1.569 9.1l12.7 26.717-7.79 18.806-27.872 9.907a8 8 0 0 0 -5.319 7.537v34.866a8 8 0 0 0 5.319 7.537l27.872 9.912 7.79 18.806-12.7 26.717a8 8 0 0 0 1.569 9.095l24.65 24.65a8.006 8.006 0 0 0 9.1 1.569zm-6.476-64.869-10.512-25.376a7.994 7.994 0 0 0 -4.712-4.474l-25.9-9.213v-23.574l25.9-9.213a7.994 7.994 0 0 0 4.71-4.476l10.514-25.374a8 8 0 0 0 -.165-6.5l-11.8-24.829 16.666-16.665 24.829 11.8a7.992 7.992 0 0 0 6.5.165l25.376-10.512a7.994 7.994 0 0 0 4.47-4.709l9.213-25.9h23.574l9.213 25.9a7.994 7.994 0 0 0 4.476 4.71l25.374 10.514a7.992 7.992 0 0 0 6.5-.165l24.829-11.8 16.669 16.669-11.8 24.829a8 8 0 0 0 -.165 6.5l10.512 25.376a7.994 7.994 0 0 0 4.705 4.467l25.9 9.211v23.574l-25.9 9.215a7.994 7.994 0 0 0 -4.71 4.476l-10.514 25.374a8 8 0 0 0 .165 6.5l11.8 24.829-16.669 16.669-24.829-11.8a7.992 7.992 0 0 0 -6.5-.165l-25.376 10.512a7.994 7.994 0 0 0 -4.467 4.705l-9.213 25.9h-23.574l-9.213-25.9a7.994 7.994 0 0 0 -4.476-4.71l-25.374-10.514a7.992 7.992 0 0 0 -6.5.165l-24.829 11.8-16.665-16.666 11.8-24.829a8 8 0 0 0 .168-6.496z"/><path d="m160 216a72 72 0 1 0 -72-72 72.081 72.081 0 0 0 72 72zm0-128a56 56 0 1 1 -56 56 56.063 56.063 0 0 1 56-56z"/><path d="m314.8 385.474-10.51 25.376a8 8 0 0 0 .165 6.5l11.8 24.829-16.669 16.669-24.829-11.8a8 8 0 0 0 -6.5-.165l-25.367 10.505a8 8 0 0 0 -4.477 4.71l-9.213 25.902h-23.571l-9.212-25.9a7.994 7.994 0 0 0 -4.476-4.71l-25.376-10.512a7.992 7.992 0 0 0 -6.5.165l-24.829 11.8-16.669-16.669 11.8-24.829a8 8 0 0 0 .165-6.5l-10.51-25.376a8 8 0 0 0 -4.704-4.469l-25.9-9.21v-23.577l25.9-9.211a8 8 0 0 0 4.711-4.476l10.51-25.376a8 8 0 0 0 -.165-6.5l-14.227-29.928-14.447 6.878 12.7 26.717-7.789 18.806-27.872 9.911a8 8 0 0 0 -5.319 7.538v34.866a8 8 0 0 0 5.319 7.538l27.872 9.911 7.789 18.806-12.7 26.717a8 8 0 0 0 1.57 9.092l24.65 24.648a8 8 0 0 0 9.091 1.569l26.717-12.7 18.8 7.79 9.913 27.872a8 8 0 0 0 7.542 5.319h34.866a8 8 0 0 0 7.538-5.319l9.911-27.872 18.806-7.79 26.716 12.7a8 8 0 0 0 9.091-1.569l24.654-24.65a8 8 0 0 0 1.57-9.092l-12.7-26.717 9.15-22.091z"/><path d="m331.565 270.5-24.654-24.65a8 8 0 0 0 -9.091-1.569l-29.927 14.227 6.869 14.451 24.829-11.8 16.669 16.669-11.8 24.829a8 8 0 0 0 -.165 6.5l9.076 21.912 14.781-6.124-7.714-18.626 12.7-26.717a8 8 0 0 0 -1.573-9.102z"/><path d="m217.416 432a72 72 0 1 0 -72-72 72.081 72.081 0 0 0 72 72zm0-128a56 56 0 1 1 -56 56 56.063 56.063 0 0 1 56-56z"/><path d="m490.681 143.03-27.872-9.912-7.79-18.806 12.7-26.717a8 8 0 0 0 -1.569-9.095l-24.65-24.65a8 8 0 0 0 -9.092-1.569l-26.717 12.7-18.806-7.79-9.911-27.872a8 8 0 0 0 -7.541-5.319h-34.866a8 8 0 0 0 -7.538 5.319l-9.911 27.872-22.091 9.152 6.123 14.781 25.376-10.512a8 8 0 0 0 4.474-4.712l9.21-25.9h23.574l9.216 25.9a7.994 7.994 0 0 0 4.476 4.71l25.374 10.514a8 8 0 0 0 6.5-.165l24.829-11.8 16.669 16.669-11.8 24.829a8 8 0 0 0 -.165 6.5l10.512 25.376a8 8 0 0 0 4.705 4.467l25.9 9.21v23.574l-25.9 9.216a8 8 0 0 0 -4.71 4.477l-10.514 25.373a8 8 0 0 0 .165 6.5l11.8 24.829-20.661 20.661 11.32 11.31 24.65-24.65a8 8 0 0 0 1.569-9.092l-12.7-26.717 7.79-18.806 27.872-9.911a8 8 0 0 0 5.319-7.541v-34.866a8 8 0 0 0 -5.319-7.537z"/><path d="m352 224a55.792 55.792 0 0 1 -51.932-35l-14.832 6a72 72 0 1 0 30.757-89.364l8.014 13.849a56 56 0 1 1 27.993 104.515z"/><path d="m442.745 304h-26.745v-32a24 24 0 0 0 -48 0v68.687l-5.372-5.374a24.971 24.971 0 0 0 -35.315 35.315l40.687 40.685v12.687h-8a8 8 0 0 0 -8 8v72h16v-64h96v64h16v-72a8 8 0 0 0 -8-8h-8v-12.687l16.4-16.4a53.255 53.255 0 0 0 -37.655-90.913zm26.343 79.6-18.745 18.745a8 8 0 0 0 -2.343 5.655v16h-64v-16a8 8 0 0 0 -2.343-5.657l-43.029-43.03a8.97 8.97 0 1 1 12.685-12.685l19.03 19.029a8 8 0 0 0 13.657-5.657v-88a8 8 0 0 1 16 0v40a8 8 0 0 0 8 8h34.745a37.255 37.255 0 0 1 26.343 63.6z"/><path d="m432 456h16v16h-16z"/></g></svg>