<svg height="480pt" viewBox="-60 0 480 480" width="480pt" xmlns="http://www.w3.org/2000/svg"><path d="m8 96h280v376h-280zm0 0" fill="#ebebeb"/><path d="m104 152c0 8.835938-7.164062 16-16 16s-16-7.164062-16-16 7.164062-16 16-16 16 7.164062 16 16zm0 0" fill="#cbcbcb"/><path d="m248 152c0 8.835938-7.164062 16-16 16s-16-7.164062-16-16 7.164062-16 16-16 16 7.164062 16 16zm0 0" fill="#cbcbcb"/><path d="m248.800781 232.625-124.855469 71.734375-36.746093-15.792969 124.855469-71.765625c5.523437-3.183593 12.085937-4.035156 18.238281-2.375 6.152343 1.660157 11.390625 5.703125 14.5625 11.230469zm0 0" fill="#d9d9d9"/><path d="m61.367188 275.726562 27.746093-15.941406 25.832031 12.839844-27.753906 15.941406zm0 0" fill="#64a8b2"/><path d="m97.96875 227.023438 34.679688-19.925782 51.664062 25.679688-34.6875 19.925781zm0 0" fill="#64a8b2"/><path d="m230.734375 278.671875-13.46875 8.648437c4.519531 7.121094 7.660156 15.035157 9.253906 23.320313l-31.457031-.296875c.277344-3.734375.6875-7.445312 1.226562-11.136719l-15.824218-2.3125c-.648438 4.425781-1.089844 8.859375-1.402344 13.289063l-19.734375-.183594-.160156 16 19.558593.183594c.167969 8.21875.902344 16.417968 2.203126 24.535156-13.949219 1.65625-28.03125 1.816406-42.007813.472656 1.332031-7.9375 2.136719-15.953125 2.398437-24l-16-.414062c-.246093 7.457031-1.007812 14.886718-2.28125 22.238281-9.773437-1.8125-19.386718-4.398437-28.75-7.726563-1.507812-5.640624-2.277343-11.453124-2.289062-17.289062 0-1.199219.03125-2.390625.097656-3.574219l-16-.851562c-.082031 1.464843-.113281 2.945312-.113281 4.425781.011719 35.785156 22.6875 67.632812 56.5 79.347656s71.332031.722656 93.480469-27.382812c22.144531-28.109375 24.054687-67.160156 4.753906-97.292969zm-36 47.664063 33.136719.320312c-.167969 4.488281-.785156 8.945312-1.839844 13.3125-9.523438 3.546875-19.320312 6.320312-29.296875 8.289062-1.164063-7.253906-1.835937-14.578124-2.007813-21.921874zm-91.796875 34.519531c5.527344 1.492187 11.113281 2.761719 16.75 3.808593-1.019531 3.792969-2.175781 7.550782-3.472656 11.28125-5.144532-4.351562-9.617188-9.433593-13.277344-15.089843zm27.023438 24.054687c2.207031-5.90625 4.101562-11.929687 5.671874-18.039062 7.472657.835937 14.984376 1.277344 22.503907 1.320312 8.6875-.066406 17.367187-.660156 25.984375-1.785156 1.609375 6.28125 3.5625 12.46875 5.847656 18.539062-18.890625 9.421876-41.109375 9.421876-60 0zm73.734374-8.910156c-1.398437-4-2.664062-8.046875-3.742187-12.136719 6.050781-1.214843 12.039063-2.695312 17.957031-4.4375-3.820312 6.25-8.621094 11.84375-14.214844 16.574219zm0 0" fill="#aedee2"/><path d="m288 96h64v376h-64zm0 0" fill="#de6560"/><path d="m320 432-32 40h64zm0 0" fill="#b6534f"/><path d="m240 152h-16v-112c0-13.253906-10.746094-24-24-24h-80c-13.253906 0-24 10.746094-24 24v112h-16v-112c.027344-22.082031 17.917969-39.9726562 40-40h80c22.082031.0273438 39.972656 17.917969 40 40zm0 0" fill="#e06661"/><path d="m200 0h-80c-22.082031.0273438-39.972656 17.917969-40 40v48h-72c-4.417969 0-8 3.582031-8 8v376c0 4.417969 3.582031 8 8 8h344c4.417969 0 8-3.582031 8-8v-376c0-4.417969-3.582031-8-8-8h-112v-48c-.027344-22.082031-17.917969-39.9726562-40-40zm-104 40c0-13.253906 10.746094-24 24-24h80c13.253906 0 24 10.746094 24 24v48h-128zm208.648438 424 15.351562-19.199219 15.351562 19.199219zm39.351562-14.808594-17.753906-22.191406c-1.570313-1.804688-3.851563-2.84375-6.246094-2.84375s-4.675781 1.039062-6.246094 2.84375l-17.753906 22.191406v-345.191406h48zm-64-345.191406v360h-264v-360h64v25.472656c-11.019531 3.894532-17.632812 15.164063-15.65625 26.683594 1.976562 11.523438 11.96875 19.941406 23.65625 19.941406s21.679688-8.417968 23.65625-19.941406c1.976562-11.519531-4.636719-22.789062-15.65625-26.683594v-25.472656h128v25.472656c-11.019531 3.894532-17.632812 15.164063-15.65625 26.683594 1.976562 11.523438 11.96875 19.941406 23.65625 19.941406s21.679688-8.417968 23.65625-19.941406c1.976562-11.519531-4.636719-22.789062-15.65625-26.683594v-25.472656zm-184 48c0 4.417969-3.582031 8-8 8s-8-3.582031-8-8zm144 0c0 4.417969-3.582031 8-8 8s-8-3.582031-8-8zm0 0"/><path d="m217.265625 287.320312c4.519531 7.121094 7.660156 15.035157 9.253906 23.320313l-31.457031-.296875c.277344-3.734375.6875-7.445312 1.226562-11.136719l-15.824218-2.3125c-.648438 4.425781-1.089844 8.859375-1.402344 13.289063l-19.734375-.183594-.160156 16 19.558593.183594c.167969 8.21875.902344 16.417968 2.203126 24.535156-13.949219 1.65625-28.03125 1.816406-42.007813.472656 1.332031-7.9375 2.136719-15.953125 2.398437-24l-16-.414062c-.246093 7.457031-1.007812 14.886718-2.28125 22.238281-9.773437-1.8125-19.386718-4.398437-28.75-7.726563-1.507812-5.640624-2.277343-11.453124-2.289062-17.289062 0-1.199219.03125-2.390625.097656-3.574219l-16-.851562c-.082031 1.464843-.113281 2.945312-.113281 4.425781.011719 35.785156 22.6875 67.632812 56.5 79.347656s71.332031.722656 93.480469-27.382812c22.144531-28.109375 24.054687-67.160156 4.753906-97.292969zm-22.539063 39.015626 33.136719.320312c-.167969 4.488281-.785156 8.945312-1.839843 13.3125-9.523438 3.546875-19.320313 6.320312-29.296876 8.289062-1.160156-7.253906-1.828124-14.578124-2-21.921874zm-91.789062 34.519531c5.527344 1.492187 11.113281 2.761719 16.75 3.808593-1.019531 3.792969-2.175781 7.550782-3.472656 11.28125-5.144532-4.351562-9.617188-9.433593-13.277344-15.089843zm27.023438 24.054687c2.207031-5.90625 4.101562-11.929687 5.671874-18.039062 7.472657.835937 14.984376 1.277344 22.503907 1.320312 8.6875-.066406 17.367187-.660156 25.984375-1.785156 1.609375 6.28125 3.5625 12.46875 5.847656 18.539062-18.890625 9.421876-41.109375 9.421876-60 0zm73.734374-8.910156c-1.398437-4-2.664062-8.046875-3.742187-12.136719 6.050781-1.214843 12.039063-2.695312 17.957031-4.4375-3.820312 6.25-8.621094 11.84375-14.214844 16.574219zm0 0"/><path d="m251.761719 221.703125c-8.804688-15.324219-28.363281-20.609375-43.691407-11.808594l-24 13.808594-47.832031-23.773437c-2.394531-1.191407-5.222656-1.101563-7.542969.230468l-34.679687 19.917969c-2.558594 1.472656-4.101563 4.230469-4.015625 7.179687.089844 2.953126 1.796875 5.613282 4.441406 6.925782l38.269532 19.023437-18.015626 10.351563-21.992187-10.933594c-2.394531-1.191406-5.222656-1.109375-7.542969.222656l-27.777344 15.953125c-2.554687 1.46875-4.09375 4.226563-4.007812 7.175781.089844 2.945313 1.792969 5.605469 4.433594 6.917969l25.824218 12.839844h.160157c.046875 0 .160156.113281.246093.152344l36.761719 15.824219c2.3125.992187 4.953125.835937 7.136719-.414063l124.863281-71.738281c3.828125-2.199219 5.152344-7.085938 2.953125-10.917969zm-118.839844-5.535156 34.4375 17.121093-18.007813 10.34375-34.398437-17.128906zm-43.539063 52.6875 8.609376 4.28125-11.070313 6.359375-8.609375-4.296875zm34.050782 26.578125-18.402344-7.898438 110.984375-63.757812c7.660156-4.402344 17.4375-1.761719 21.839844 5.894531zm0 0"/></svg>